<svg width="190" height="165" viewBox="0 0 190 165" fill="none" xmlns="http://www.w3.org/2000/svg">
<path d="M67.0119 23.7026H0.667969L24.1656 65.7461H48.4085L36.7396 44.8636H54.5959L112.127 147.804L126.222 129.646L67.0119 23.7026Z" fill="white"/>
<path d="M165.002 78.4083C165.073 79.7038 165.11 81.0077 165.111 82.3201C165.111 109.979 149.065 133.899 125.778 145.269L115.98 161.973C151.334 152.73 177.421 120.576 177.421 82.3254C177.427 75.3659 176.55 68.4337 174.813 61.6943L165.002 78.4083Z" fill="white"/>
<path d="M95.0997 12.308C104.195 12.2969 113.204 14.0631 121.622 17.5076H145.858C131.37 6.16378 113.5 0 95.0997 0C76.6994 0 58.8294 6.16378 44.3418 17.5076H68.5775C76.9951 14.0631 86.0047 12.2969 95.0997 12.308Z" fill="white"/>
<path d="M25.0869 82.3183C25.0869 81.7544 25.0941 81.1916 25.1085 80.6301L15.1171 62.7559C13.5604 69.16 12.7765 75.7277 12.7823 82.3183C12.7823 134.337 61.1299 174.795 113.601 162.91L107.292 151.62C64.492 158.998 25.0905 125.739 25.0905 82.3183" fill="white"/>
<path d="M73.1338 23.8657L99.5895 71.2021H137.319L130.411 82.9752L126.632 76.2131H102.389L129.966 125.556L174.271 50.0394H112.005L109.204 45.0285H177.211L189.528 24.0346V23.8657H73.1338Z" fill="white"/>
<path d="M55.3002 78.2524L97.3904 144.939C97.3904 144.939 21.3245 134.797 55.3002 78.2524Z" fill="#EDDB6E"/>
</svg>
