<svg width="23" height="23" viewBox="0 0 23 23" fill="none" xmlns="http://www.w3.org/2000/svg">
<path d="M2.12136 19.5764H3.64062V22.8654H2.98133V20.2173L2.39304 20.2196H2.25163C1.92312 20.2196 1.74055 20.2334 1.70412 20.2608C1.50795 20.314 1.34219 20.4273 1.20682 20.6006C1.06107 20.809 0.988004 21.0165 0.988004 21.2234C0.988004 21.4789 1.08675 21.7139 1.28442 21.9282C1.41676 22.0543 1.5308 22.1304 1.62671 22.1563C1.72243 22.205 1.88744 22.2294 2.12155 22.2294H2.58014V22.8656H2.03055C1.62293 22.8656 1.27856 22.7586 0.997066 22.5441C0.793353 22.3829 0.657229 22.2369 0.588885 22.1063C0.418589 21.8355 0.333252 21.5587 0.333252 21.2759V21.1802C0.333252 20.7847 0.481458 20.422 0.77806 20.0922C0.957418 19.9172 1.1043 19.8069 1.21815 19.7614C1.30046 19.7157 1.41355 19.6723 1.55817 19.6315C1.68731 19.5945 1.87517 19.5764 2.12136 19.5764ZM6.95931 20.2332C7.02463 20.3214 7.07183 20.3965 7.10072 20.4588C7.14339 20.5336 7.18341 20.6338 7.22174 20.7599C7.26724 20.9121 7.29008 21.1188 7.29008 21.3803V22.8652H6.6308V21.3097C6.6308 20.7866 6.39443 20.4369 5.92149 20.2604C5.81349 20.23 5.71853 20.2141 5.63621 20.2124C5.55409 20.2141 5.45988 20.23 5.35339 20.2604C4.88045 20.4369 4.64408 20.7866 4.64408 21.3097V22.8652H3.98253V21.3803C3.98253 21.1188 4.00537 20.9121 4.05088 20.7599C4.08882 20.6338 4.12923 20.5336 4.17189 20.4588C4.20078 20.395 4.24855 20.3199 4.31557 20.2332C4.66994 19.7982 5.11022 19.5807 5.63621 19.5807C6.16258 19.5807 6.60343 19.7982 6.95931 20.2332ZM8.80915 19.5784C9.25189 19.5784 9.50563 19.5885 9.57114 19.6081C9.7505 19.6294 9.9527 19.7048 10.1778 19.8339C10.3008 19.9098 10.4319 20.0263 10.5701 20.1828C10.8165 20.4885 10.9396 20.836 10.9396 21.2251C10.9396 21.4532 10.8956 21.6684 10.8074 21.8706C10.6341 22.2645 10.3488 22.549 9.95214 22.7238C9.76806 22.8182 9.48524 22.8652 9.10368 22.8652H7.70544L7.63238 22.8516V22.2265H9.17429C9.33854 22.2265 9.46542 22.2122 9.55528 22.1833C9.79411 22.1027 9.96875 21.9826 10.0798 21.8229C10.2151 21.6209 10.2827 21.4238 10.2827 21.2321C10.2827 21.0392 10.2242 20.8491 10.1071 20.6618C10.0341 20.554 9.95365 20.4718 9.86548 20.4154C9.70425 20.2832 9.47391 20.217 9.17429 20.217H7.63238V19.5783H8.80915V19.5784ZM11.2818 19.5784H13.3941C13.7666 19.5784 14.0587 19.6902 14.2699 19.9138C14.3643 20.0019 14.4297 20.0871 14.4661 20.1692C14.5484 20.3334 14.5892 20.4939 14.5892 20.6506V20.7441C14.5892 20.9842 14.485 21.2193 14.2769 21.4489C14.1431 21.5765 14.0213 21.6586 13.9118 21.6952C14.1886 21.9903 14.327 22.3802 14.327 22.8652H13.6632V22.815C13.6632 22.4563 13.5178 22.171 13.2274 21.9598C13.0616 21.8427 12.8449 21.784 12.5774 21.784H11.2818V21.15H13.4351C13.6707 21.15 13.8304 21.0337 13.9141 20.8009C13.9231 20.7539 13.9292 20.7143 13.9322 20.6823C13.9322 20.553 13.8784 20.436 13.7704 20.3312C13.6777 20.2581 13.5788 20.2217 13.474 20.2217C13.474 20.2156 13.4421 20.2124 13.3781 20.2124H11.2818V19.5784ZM16.5759 19.5807H16.5986C17.1036 19.5807 17.5346 19.7876 17.892 20.2011C18.1233 20.5115 18.2387 20.8491 18.2387 21.2138V21.2367C18.2387 21.7415 18.0274 22.1703 17.6047 22.5229C17.2975 22.7512 16.9607 22.8652 16.5942 22.8652H16.5714C16.0696 22.8652 15.6399 22.66 15.2827 22.2494C15.1581 22.0745 15.0706 21.9141 15.0202 21.7681C14.9611 21.5856 14.9313 21.407 14.9313 21.2319V21.2093C14.9313 20.7135 15.1358 20.2893 15.5449 19.9364C15.8217 19.7387 16.0741 19.6277 16.3022 19.6034C16.372 19.5885 16.4632 19.5807 16.5759 19.5807ZM15.5881 21.2185C15.5881 21.5046 15.6999 21.7555 15.9234 21.9713C16.1226 22.1414 16.3316 22.2267 16.5506 22.2267H16.6144C16.791 22.2267 16.9703 22.1667 17.1529 22.0466C17.3413 21.9082 17.4691 21.7319 17.536 21.5174C17.5571 21.4611 17.5724 21.3645 17.5815 21.2278C17.5815 20.948 17.4729 20.7008 17.2552 20.4864C17.0515 20.3053 16.828 20.2149 16.5846 20.2149C16.3003 20.2149 16.0479 20.3334 15.8273 20.5708C15.7346 20.6925 15.6759 20.7956 15.6516 20.881C15.6095 20.9995 15.5881 21.1121 15.5881 21.2185ZM18.5808 19.5807H19.2399V22.8652H18.5808V19.5807ZM20.7727 19.5784C21.2153 19.5784 21.469 19.5885 21.5345 19.6081C21.7139 19.6294 21.9161 19.7048 22.1411 19.8339C22.2642 19.9098 22.3953 20.0263 22.5335 20.1828C22.7798 20.4885 22.9029 20.836 22.9029 21.2251C22.9029 21.4532 22.8589 21.6684 22.7708 21.8706C22.5975 22.2645 22.3122 22.549 21.9155 22.7238C21.7314 22.8182 21.4486 22.8652 21.0671 22.8652H19.6688L19.5958 22.8516V22.2265H21.1377C21.3019 22.2265 21.4288 22.2122 21.5187 22.1833C21.7575 22.1027 21.9321 21.9826 22.0431 21.8229C22.1785 21.6209 22.2461 21.4238 22.2461 21.2321C22.2461 21.0392 22.1876 20.8491 22.0705 20.6618C21.9975 20.554 21.917 20.4718 21.8289 20.4154C21.6676 20.2832 21.4373 20.217 21.1377 20.217H19.5958V19.5783H20.7727V19.5784ZM5.0449 6.21418C4.42545 6.2138 3.92325 6.71714 3.92306 7.33621L3.92381 12.0352C3.924 12.6565 4.42639 13.158 5.04622 13.158C5.66604 13.158 6.16843 12.6565 6.16787 12.0356V7.33602C6.16749 6.71676 5.66472 6.2138 5.0449 6.21418ZM14.0942 1.99435L14.8773 0.564398C14.919 0.489634 14.8915 0.39448 14.816 0.352C14.7395 0.311786 14.6451 0.339162 14.6047 0.414303L13.8136 1.85936C13.1479 1.56333 12.4031 1.39738 11.6149 1.39813C10.8289 1.39738 10.0843 1.56295 9.42124 1.85767L8.62942 0.416191C8.58826 0.340295 8.49348 0.312541 8.41872 0.353888C8.34263 0.395235 8.31469 0.490389 8.35698 0.564776L9.14031 1.99398C7.60085 2.78787 6.56076 4.30015 6.5617 6.03577L16.6698 6.03463C16.6698 4.29901 15.6316 2.79052 14.0942 1.99435ZM9.31589 4.20461C9.08348 4.20424 8.89355 4.01506 8.89355 3.78133C8.89355 3.54835 9.08291 3.35691 9.31645 3.35691C9.55056 3.35691 9.74031 3.54835 9.74049 3.78133C9.74049 4.01468 9.55056 4.20461 9.31589 4.20461ZM13.9186 4.20386C13.6849 4.20424 13.4947 4.01468 13.4947 3.7802C13.4957 3.54797 13.6847 3.35653 13.9186 3.3554C14.151 3.35616 14.3417 3.54797 14.3415 3.78057C14.3421 4.01431 14.152 4.20386 13.9186 4.20386ZM6.60267 6.4262L6.60437 13.7085C6.60399 14.3708 7.1398 14.9055 7.80173 14.9055L8.61696 14.9059L8.61809 17.3924C8.61771 18.0114 9.12105 18.5148 9.73936 18.5148C10.3592 18.5148 10.8616 18.011 10.8618 17.3916L10.861 14.9059L12.3759 14.9055L12.3765 17.3916C12.3765 18.0103 12.88 18.5144 13.4983 18.5132C14.1183 18.5136 14.6209 18.0099 14.6207 17.3908L14.62 14.9051L15.4382 14.9044C16.0986 14.9047 16.6358 14.3693 16.6362 13.7066L16.6348 6.42431L6.60267 6.4262ZM19.312 7.33489C19.312 6.71506 18.8098 6.21248 18.19 6.21286C17.5703 6.21248 17.0683 6.71544 17.0683 7.33526L17.0693 12.0346C17.0691 12.6548 17.5711 13.1563 18.1911 13.1563C18.8107 13.1563 19.3127 12.6548 19.3127 12.0339L19.312 7.33489Z" fill="#A4C439"/>
</svg>
