<svg width="27" height="26" viewBox="0 0 27 26" fill="none" xmlns="http://www.w3.org/2000/svg">
<path fill-rule="evenodd" clip-rule="evenodd" d="M24.676 12.8493C24.676 19.0128 19.6794 24.0089 13.5164 24.0089C7.35283 24.0089 2.35675 19.0123 2.35675 12.8493C2.35675 6.68577 7.35334 1.6897 13.5164 1.6897C19.6799 1.6897 24.676 6.68629 24.676 12.8493Z" fill="#3771C8"/>
<path d="M15.2231 5.52856C12.5951 5.52856 11.6703 6.85033 11.6703 9.07476V10.5819H9.90668V13.4383H9.95766V13.4893H10.0086V13.5403H10.0596V13.5913H10.1106V13.6422H10.16V13.6932H10.211V13.7426H10.262V13.7936H10.3129V13.8446H10.3639V13.8956H10.4149V13.9465H10.4643V13.9975H10.5153V14.0469H10.5663V14.0979H10.6172V14.1489H10.6682V14.1999H10.7192V14.2509H10.7686V14.3018H10.8196V14.3528H10.8706V14.4022H10.9215V14.4532H10.9725V14.5042H11.0235V14.5552H11.0729V14.6061H11.1239V14.6571H11.1749V14.7065H11.2258V14.7575H11.2768V14.8085H11.3278V14.8595H11.3788V14.9104H11.4282V14.9614H11.4792V15.0108H11.5301V15.0618H11.5811V15.1128H11.6321V15.1638H11.6703V20.4723H11.7213V20.5233H11.7723V20.5743H11.8217V20.6253H11.8727V20.6763H11.9237V20.7272H11.9746V20.7782H12.0256V20.8276H12.0766V20.8786H12.1276V20.9296H12.177V20.9806H12.228V21.0315H12.2789V21.0825H12.3299V21.1319H12.3809V21.1829H12.4319V21.2339H12.4813V21.2849H12.5323V21.3359H12.5832V21.3868H12.6342V21.4362H12.6852V21.4872H12.7362V21.5382H12.7856V21.5892H12.8366V21.6402H12.8876V21.6911H12.9385V21.7405H12.9895V21.7915H13.0405V21.8425H13.0899V21.8935H13.1409V21.9445H13.1919V21.9954H13.2428V22.0464H13.2938V22.0958H13.3448V22.1468H13.3958V22.1978H13.4452V22.2488H13.4962V22.2997H13.5471V22.3507H13.5981V22.4001H13.6491V22.4511H13.7001V22.5021H13.7495V22.5531H13.8005V22.604H13.8514V22.655H13.9024V22.7044H13.9534V22.7554H14.0044V22.8064H14.0538V22.8574H14.1048V22.9083H14.1557V22.9593H14.2067V23.0103H14.2577V23.0597H14.3087V23.1107H14.3597V23.1617H14.4091V23.2126H14.46V23.2636H14.511V23.3146H14.562V23.364H14.613V23.415H14.664V23.466H14.7134V23.5169H14.7643V23.5679H14.8153V23.6189H14.8663V23.6683H14.9173V23.7193H14.9683V23.7703H15.0177V23.8212H15.0686V23.8722H15.1196V23.8946C20.523 23.1168 24.6754 18.4697 24.6754 12.8512V12.8336H24.6642V12.7827H24.6148V12.7317H24.5638V12.6807H24.5129V12.6297H24.4619V12.5787H24.4109V12.5293H24.3599V12.4784H24.3105V12.4274H24.2595V12.3764H24.2086V12.3254H24.1576V12.2744H24.1066V12.225H24.0556V12.1741H24.0062V12.1231H23.9552V12.0721H23.9043V12.0211H23.8533V11.9701H23.8023V11.9192H23.7513V11.8698H23.7003V11.8188H23.6509V11.7678H23.6V11.7168H23.549V11.6658H23.498V11.6149H23.447V11.5655H23.396V11.5145H23.3466V11.4635H23.2957V11.4125H23.2447V11.3615H23.1937V11.3106H23.1427V11.2612H23.0917V11.2102H23.0423V11.1592H22.9914V11.1082H22.9404V11.0572H22.8894V11.0063H22.8384V10.9569H22.7874V10.9059H22.738V10.8549H22.6871V10.8039H22.6361V10.7529H22.5851V10.702H22.5341V10.651H22.4831V10.6016H22.4322V10.5506H22.3828V10.4996H22.3318V10.4486H22.2808V10.3977H22.2298V10.3467H22.1788V10.2973H22.1278V10.2463H22.0779V10.1953H22.0269V10.1443H21.9759V10.0933H21.9249V10.0424H21.874V9.99297H21.823V9.94199H21.7736V9.89101H21.7226V9.84003H21.6716V9.78905H21.6206V9.73807H21.5697V9.68709H21.5187V9.63769H21.4677V9.58671H21.4183V9.53573H21.3673V9.48474H21.3163V9.43376H21.2654V9.38278H21.2144V9.33338H21.1634V9.2824H21.114V9.23142H21.063V9.18044H21.012V9.12946H20.9611V9.07848H20.9101V9.02908H20.8591V8.9781H20.8097V8.92712H20.7587V8.87614H20.7077V8.82516H20.6568V8.77418H20.6058V8.72478H20.5548V8.6738H20.5054V8.62282H20.4544V8.57184H20.4034V8.52086H20.3525V8.46988H20.3015V8.4189H20.2505V8.3695H20.1995V8.31852H20.1501V8.26754H20.0991V8.21656H20.0482V8.16558H19.9972V8.1146H19.9462V8.0652H19.8952V8.01422H19.8458V7.96324H19.7948V7.91225H19.7439V7.86127H19.6929V7.81029H19.6419V7.76089H19.5909V7.70991H19.5415V7.65893H19.4905V7.60795H19.4396V7.55697H19.3886V7.50599H19.3376V7.45501H19.2866V7.40561H19.2356V7.35463H19.1862V7.30365H19.1353V7.25267H19.0843V7.20169H19.0333V7.15071H18.9823V7.10131H18.9313V7.05033H18.8819V6.99935H18.8309V6.94837H18.78V6.89739H18.729V6.84641H18.678V6.79701H18.627V6.74603H18.5776V6.69505H18.5266V6.64407H18.4757V6.59309H18.4247V6.54211H18.3737V6.49271H18.3227V6.44172H18.2733V6.39074H18.2223V6.33976H18.1714V6.28878H18.1204V6.2378H18.0694V6.18682H18.0184V6.13742H17.9674V6.08644H17.918V6.03546H17.8671V5.98448H17.8161V5.9335H17.7651V5.88252H17.7141V5.83312H17.6631V5.78214H17.6137V5.73116H17.5628V5.68018H17.5118V5.6292H17.4608V5.57822H17.4098V5.52882H15.2225" fill="black" fill-opacity="0.235"/>
<path fill-rule="evenodd" clip-rule="evenodd" d="M13.6667 0C6.48718 0 0.666748 5.82043 0.666748 13C0.666748 20.1796 6.48718 26 13.6667 26C20.8463 26 26.6667 20.1796 26.6667 13C26.6667 5.82043 20.8463 0 13.6667 0ZM14.1168 2.2906C20.2803 2.2906 25.2764 7.28668 25.2764 13.4502C25.2764 19.6137 20.2803 24.6098 14.1168 24.6098C7.95322 24.6098 2.95561 19.6137 2.95561 13.4502C2.95561 7.28668 7.95322 2.2906 14.1168 2.2906Z" fill="black" fill-opacity="0.067"/>
<path fill-rule="evenodd" clip-rule="evenodd" d="M13.6668 0.175049C6.58354 0.175049 0.841614 5.91697 0.841614 13.0002C0.841614 20.0834 6.58354 25.8253 13.6668 25.8253C20.75 25.8253 26.4919 20.0834 26.4919 13.0002C26.4919 5.91697 20.75 0.175049 13.6668 0.175049ZM13.9668 2.14065C20.1303 2.14065 25.1264 7.13673 25.1264 13.3003C25.1264 19.4638 20.1303 24.4599 13.9668 24.4599C7.80324 24.4599 2.80563 19.4638 2.80563 13.3003C2.80563 7.13673 7.80324 2.14065 13.9668 2.14065Z" fill="black" fill-opacity="0.129"/>
<path fill-rule="evenodd" clip-rule="evenodd" d="M13.6668 0.375244C6.69419 0.375244 1.04199 6.02744 1.04199 13C1.04199 19.9726 6.69419 25.6248 13.6668 25.6248C20.6394 25.6248 26.2916 19.9726 26.2916 13C26.2916 6.02744 20.6394 0.375244 13.6668 0.375244ZM13.8168 1.99086C19.9803 1.99086 24.9764 6.98694 24.9764 13.1505C24.9764 19.314 19.9803 24.3101 13.8168 24.3101C7.65323 24.3101 2.65562 19.314 2.65562 13.1505C2.65562 6.98694 7.65323 1.99086 13.8168 1.99086Z" fill="black" fill-opacity="0.129"/>
<path fill-rule="evenodd" clip-rule="evenodd" d="M13.5159 0.350342C6.61211 0.350342 1.01599 5.94697 1.01599 12.8502C1.01599 19.754 6.61262 25.3501 13.5159 25.3501C20.4196 25.3501 26.0158 19.7535 26.0158 12.8502C26.0158 5.94646 20.4191 0.350342 13.5159 0.350342ZM13.5159 1.69097C19.6794 1.69097 24.6755 6.68705 24.6755 12.8506C24.6755 19.0141 19.6794 24.0102 13.5159 24.0102C7.35234 24.0102 2.35474 19.0141 2.35474 12.8506C2.35474 6.68705 7.35234 1.69097 13.5159 1.69097Z" fill="white" stroke="black" stroke-opacity="0.31" stroke-width="0.250008"/>
<path d="M14.9489 20.4729H11.6704V13.4391H9.90704V10.5827H11.6704V9.07505C11.6704 6.85052 12.5951 5.52783 15.2227 5.52783H17.4106V8.25528H16.043C15.0199 8.25528 14.9526 8.63631 14.9526 9.34769L14.9485 10.5829H17.426L17.1361 13.4394H14.9485L14.9489 20.4729Z" fill="white"/>
</svg>
