<svg width="25" height="26" viewBox="0 0 25 26" fill="none" xmlns="http://www.w3.org/2000/svg">
<path d="M24.6639 12.8634C24.6639 11.8288 24.5799 11.0737 24.3982 10.2908H12.5836V14.9606H19.5185C19.3788 16.1212 18.6238 17.8689 16.9459 19.0433L16.9224 19.1996L20.658 22.0935L20.9168 22.1194C23.2936 19.9242 24.6639 16.6944 24.6639 12.8634Z" fill="#4285F4"/>
<path d="M12.5836 25.1674C15.9812 25.1674 18.8334 24.0488 20.9168 22.1193L16.9459 19.0433C15.8833 19.7843 14.4571 20.3016 12.5836 20.3016C9.25598 20.3016 6.43167 18.1066 5.42489 15.0725L5.27732 15.085L1.39302 18.0911L1.34222 18.2323C3.41151 22.343 7.66199 25.1674 12.5836 25.1674Z" fill="#34A853"/>
<path d="M5.42488 15.0725C5.15924 14.2895 5.0055 13.4505 5.0055 12.5837C5.0055 11.7168 5.15924 10.8779 5.41091 10.0949L5.40387 9.92816L1.4709 6.87378L1.34222 6.93499C0.489368 8.64079 0 10.5563 0 12.5837C0 14.611 0.489368 16.5265 1.34222 18.2323L5.42488 15.0725Z" fill="#FBBC05"/>
<path d="M12.5836 4.86563C14.9465 4.86563 16.5404 5.8863 17.4493 6.73925L21.0006 3.27174C18.8195 1.24439 15.9812 0 12.5836 0C7.66199 0 3.41151 2.8243 1.34222 6.93492L5.41091 10.0948C6.43167 7.0608 9.25598 4.86563 12.5836 4.86563Z" fill="#EB4335"/>
</svg>
