<svg width="24" height="24" viewBox="0 0 24 24" fill="none" xmlns="http://www.w3.org/2000/svg">
<g clip-path="url(#clip0_286_363)">
<path d="M5.63264 0.622559H18.3673C21.1344 0.622559 23.3775 2.8657 23.3775 5.63276V18.3675C23.3775 21.1345 21.1344 23.3777 18.3673 23.3777H5.63264C2.86558 23.3777 0.622437 21.1345 0.622437 18.3675V5.63276C0.622437 2.8657 2.86558 0.622559 5.63264 0.622559Z" stroke="#D9D9D9"/>
<path fill-rule="evenodd" clip-rule="evenodd" d="M4.02632 16.8417H3.46755V9.37484H4.02632V16.8417ZM3.73898 7.54447C3.50334 7.54447 3.30847 7.35755 3.30847 7.12191C3.30847 6.87932 3.50235 6.69141 3.73898 6.69141C3.98157 6.69141 4.17446 6.87832 4.17446 7.12191C4.17446 7.35755 3.98157 7.54447 3.73898 7.54447Z" fill="url(#paint0_linear_286_363)"/>
<path fill-rule="evenodd" clip-rule="evenodd" d="M9.45367 16.987C6.72146 16.987 4.99542 14.9975 4.99542 11.8349C4.99542 8.68806 6.72942 6.69067 9.45367 6.69067C12.1779 6.69067 13.9109 8.68818 13.9109 11.8349C13.9109 14.9976 12.1849 16.987 9.45367 16.987ZM9.45367 7.20459C7.07546 7.20459 5.55722 9.00018 5.55722 11.8348C5.55722 14.6714 7.08244 16.474 9.45367 16.474C11.8319 16.474 13.3501 14.6714 13.3501 11.8348C13.3501 8.9992 11.8319 7.20459 9.45367 7.20459Z" fill="url(#paint1_linear_286_363)"/>
<path fill-rule="evenodd" clip-rule="evenodd" d="M17.8898 16.9877C15.8387 16.9877 14.3682 15.8294 14.2847 14.1729H14.8325C14.916 15.5311 16.1917 16.4816 17.9316 16.4816C19.6297 16.4816 20.8149 15.5172 20.8149 14.2147C20.8149 13.1667 20.108 12.5642 18.4307 12.1416L17.2455 11.8503C15.3952 11.378 14.5551 10.6294 14.5551 9.37561C14.5551 7.81561 16.0116 6.69214 17.8351 6.69214C19.7202 6.69214 21.128 7.80172 21.1907 9.27128H20.6429C20.5663 8.07221 19.3951 7.19822 17.8212 7.19822C16.3159 7.19822 15.1167 8.10001 15.1167 9.36165C15.1167 10.3609 15.8515 10.9356 17.4592 11.3372L18.5757 11.6216C20.5096 12.0998 21.3765 12.8425 21.3765 14.1728C21.3765 15.8292 19.9835 16.9875 17.8897 16.9875L17.8898 16.9877Z" fill="url(#paint2_linear_286_363)"/>
</g>
<defs>
<linearGradient id="paint0_linear_286_363" x1="3.74146" y1="6.69141" x2="3.74146" y2="15.5274" gradientUnits="userSpaceOnUse">
<stop stop-color="#0339F1"/>
<stop offset="1" stop-color="#01ADE5"/>
</linearGradient>
<linearGradient id="paint1_linear_286_363" x1="6.24457" y1="7.6724" x2="12.4044" y2="13.5622" gradientUnits="userSpaceOnUse">
<stop stop-color="#0756EE"/>
<stop offset="0.37448" stop-color="#00A3F5"/>
<stop offset="0.71708" stop-color="#18B5B6"/>
<stop offset="1" stop-color="#80DF43"/>
</linearGradient>
<linearGradient id="paint2_linear_286_363" x1="15.2078" y1="7.0085" x2="22.7565" y2="13.202" gradientUnits="userSpaceOnUse">
<stop stop-color="#20BBA6"/>
<stop offset="0.4988" stop-color="#9BEC23"/>
<stop offset="1" stop-color="#D9EF35"/>
</linearGradient>
<clipPath id="clip0_286_363">
<rect width="24" height="24" fill="white"/>
</clipPath>
</defs>
</svg>
