<svg width="19" height="20" viewBox="0 0 19 20" fill="none" xmlns="http://www.w3.org/2000/svg">
<path d="M13.4613 12.7878C15.6608 11.5801 17.3283 10.6598 17.472 10.5883C17.9318 10.3437 18.4066 9.69659 17.472 9.19391C17.1703 9.03588 15.5457 8.1442 13.4613 6.99438L10.5717 9.91254L13.4613 12.7878Z" fill="#FFD900"/>
<path d="M10.5718 9.91235L1.37109 19.1852C1.58704 19.2138 1.83088 19.1566 2.11833 18.9986C2.72184 18.6683 9.11947 15.1745 13.4613 12.7883L10.5718 9.91235Z" fill="#F43249"/>
<path d="M10.5717 9.91258L13.4613 7.00873C13.4613 7.00873 2.76542 1.1717 2.11829 0.827041C1.87445 0.682599 1.6013 0.639696 1.35675 0.682599L10.5717 9.91258Z" fill="#00EE76"/>
<path d="M10.5717 9.91236L1.35678 0.682373C0.982804 0.768895 0.666748 1.09925 0.666748 1.77498V18.0926C0.666748 18.7112 0.911298 19.1566 1.37108 19.1995L10.5717 9.91236Z" fill="#00D3FF"/>
</svg>
